<svg width="19" height="19" viewBox="0 0 19 19" fill="none" xmlns="http://www.w3.org/2000/svg">
<path d="M16.6804 4.14043C15.4058 4.01376 14.1312 3.91876 12.8487 3.84751V3.83959L12.6746 2.81043C12.5558 2.08209 12.3817 0.989594 10.5292 0.989594H8.45499C6.61041 0.989594 6.43624 2.03459 6.30958 2.80251L6.14333 3.81584C5.40708 3.86334 4.67083 3.91084 3.93458 3.98209L2.31958 4.14043C1.98708 4.17209 1.74958 4.46501 1.78124 4.78959C1.81291 5.11418 2.09791 5.35168 2.43041 5.32001L4.04541 5.16168C8.19374 4.75001 12.3737 4.90834 16.5696 5.32793H16.6329C16.9337 5.32793 17.195 5.09834 17.2267 4.78959C17.2386 4.63145 17.1881 4.47493 17.086 4.35358C16.9838 4.23223 16.8383 4.15571 16.6804 4.14043ZM15.2237 6.44418C15.0337 6.24626 14.7725 6.13543 14.5033 6.13543H4.49666C4.22749 6.13543 3.95833 6.24626 3.77624 6.44418C3.59416 6.64209 3.49124 6.91126 3.50708 7.18834L3.99791 15.3108C4.08499 16.5142 4.19583 18.0183 6.95874 18.0183H12.0412C14.8042 18.0183 14.915 16.5221 15.0021 15.3108L15.4929 7.19626C15.5087 6.91126 15.4058 6.64209 15.2237 6.44418ZM10.8142 14.0521H8.17791C7.85333 14.0521 7.58416 13.7829 7.58416 13.4583C7.58416 13.1338 7.85333 12.8646 8.17791 12.8646H10.8142C11.1387 12.8646 11.4079 13.1338 11.4079 13.4583C11.4079 13.7829 11.1387 14.0521 10.8142 14.0521ZM11.4792 10.8854H7.52083C7.19624 10.8854 6.92708 10.6163 6.92708 10.2917C6.92708 9.96709 7.19624 9.69793 7.52083 9.69793H11.4792C11.8037 9.69793 12.0729 9.96709 12.0729 10.2917C12.0729 10.6163 11.8037 10.8854 11.4792 10.8854Z" fill="#F58989"/>
</svg>
